<svg width="20" height="20" viewBox="0 0 22 22" fill="none" xmlns="http://www.w3.org/2000/svg">
    <path
        d="M15.9844 1.33203H6.01562C5.25723 1.33203 4.64062 1.94863 4.64062 2.70703V19.207C4.64062 19.9654 5.25723 20.582 6.01562 20.582H15.9844C16.7428 20.582 17.3594 19.9654 17.3594 19.207V2.70703C17.3594 1.94863 16.7428 1.33203 15.9844 1.33203ZM15.8125 19.0352H6.1875V2.87891H15.8125V19.0352ZM10.1406 16.8438C10.1406 17.0717 10.2312 17.2903 10.3923 17.4514C10.5535 17.6126 10.7721 17.7031 11 17.7031C11.2279 17.7031 11.4465 17.6126 11.6077 17.4514C11.7688 17.2903 11.8594 17.0717 11.8594 16.8438C11.8594 16.6158 11.7688 16.3972 11.6077 16.2361C11.4465 16.0749 11.2279 15.9844 11 15.9844C10.7721 15.9844 10.5535 16.0749 10.3923 16.2361C10.2312 16.3972 10.1406 16.6158 10.1406 16.8438Z"
        fill="#959DA9" />
</svg>